<mxfile modified="2022-02-24T11:51:35.588Z" host="app.diagrams.net" agent="5.0 (Windows NT 10.0; Win64; x64) AppleWebKit/537.36 (KHTML, like Gecko) Chrome/98.0.4758.102 Safari/537.36" etag="iq1kiasc5Of4uxRsFA3Z" version="16.6.3" type="github">
  <diagram id="Ht1M8jgEwFfnCIfOTk4-" name="Page-1">
    <mxGraphModel dx="1896" dy="1048" grid="1" gridSize="10" guides="1" tooltips="1" connect="1" arrows="1" fold="1" page="1" pageScale="1" pageWidth="827" pageHeight="1169" math="0" shadow="0">
      <root>
        <mxCell id="0" />
        <mxCell id="1" parent="0" />
        <mxCell id="Ry7KWOG2_OyDYbVC3phW-1" value="AWS Cloud" style="points=[[0,0],[0.25,0],[0.5,0],[0.75,0],[1,0],[1,0.25],[1,0.5],[1,0.75],[1,1],[0.75,1],[0.5,1],[0.25,1],[0,1],[0,0.75],[0,0.5],[0,0.25]];outlineConnect=0;gradientColor=none;html=1;whiteSpace=wrap;fontSize=12;fontStyle=0;container=1;pointerEvents=0;collapsible=0;recursiveResize=0;shape=mxgraph.aws4.group;grIcon=mxgraph.aws4.group_aws_cloud_alt;strokeColor=#232F3E;fillColor=none;verticalAlign=top;align=left;spacingLeft=30;fontColor=#232F3E;dashed=0;" vertex="1" parent="1">
          <mxGeometry x="100" y="320" width="600" height="520" as="geometry" />
        </mxCell>
        <mxCell id="Ry7KWOG2_OyDYbVC3phW-10" value="Inter Gateway" style="text;html=1;resizable=0;autosize=1;align=center;verticalAlign=middle;points=[];fillColor=none;strokeColor=none;rounded=0;fontSize=15;" vertex="1" parent="Ry7KWOG2_OyDYbVC3phW-1">
          <mxGeometry x="320" y="10" width="110" height="20" as="geometry" />
        </mxCell>
        <mxCell id="Ry7KWOG2_OyDYbVC3phW-7" value="" style="sketch=0;outlineConnect=0;fontColor=#232F3E;gradientColor=none;fillColor=#4D27AA;strokeColor=none;dashed=0;verticalLabelPosition=bottom;verticalAlign=top;align=center;html=1;fontSize=12;fontStyle=0;aspect=fixed;pointerEvents=1;shape=mxgraph.aws4.internet_gateway;" vertex="1" parent="Ry7KWOG2_OyDYbVC3phW-1">
          <mxGeometry x="250" y="-20" width="70" height="70" as="geometry" />
        </mxCell>
        <mxCell id="Ry7KWOG2_OyDYbVC3phW-2" value="Region" style="points=[[0,0],[0.25,0],[0.5,0],[0.75,0],[1,0],[1,0.25],[1,0.5],[1,0.75],[1,1],[0.75,1],[0.5,1],[0.25,1],[0,1],[0,0.75],[0,0.5],[0,0.25]];outlineConnect=0;gradientColor=none;html=1;whiteSpace=wrap;fontSize=12;fontStyle=0;container=1;pointerEvents=0;collapsible=0;recursiveResize=0;shape=mxgraph.aws4.group;grIcon=mxgraph.aws4.group_region;strokeColor=#147EBA;fillColor=none;verticalAlign=top;align=left;spacingLeft=30;fontColor=#147EBA;dashed=1;" vertex="1" parent="1">
          <mxGeometry x="120" y="360" width="560" height="460" as="geometry" />
        </mxCell>
        <mxCell id="Ry7KWOG2_OyDYbVC3phW-4" value="Private subnet" style="points=[[0,0],[0.25,0],[0.5,0],[0.75,0],[1,0],[1,0.25],[1,0.5],[1,0.75],[1,1],[0.75,1],[0.5,1],[0.25,1],[0,1],[0,0.75],[0,0.5],[0,0.25]];outlineConnect=0;gradientColor=none;html=1;whiteSpace=wrap;fontSize=12;fontStyle=0;container=1;pointerEvents=0;collapsible=0;recursiveResize=0;shape=mxgraph.aws4.group;grIcon=mxgraph.aws4.group_security_group;grStroke=0;strokeColor=#147EBA;fillColor=#E6F2F8;verticalAlign=top;align=left;spacingLeft=30;fontColor=#147EBA;dashed=0;" vertex="1" parent="Ry7KWOG2_OyDYbVC3phW-2">
          <mxGeometry x="50" y="260" width="480" height="180" as="geometry" />
        </mxCell>
        <mxCell id="Ry7KWOG2_OyDYbVC3phW-6" value="" style="sketch=0;outlineConnect=0;fontColor=#232F3E;gradientColor=none;fillColor=#2E27AD;strokeColor=none;dashed=0;verticalLabelPosition=bottom;verticalAlign=top;align=center;html=1;fontSize=12;fontStyle=0;aspect=fixed;pointerEvents=1;shape=mxgraph.aws4.rds_mysql_instance;" vertex="1" parent="Ry7KWOG2_OyDYbVC3phW-4">
          <mxGeometry x="191" y="50" width="78" height="78" as="geometry" />
        </mxCell>
        <mxCell id="Ry7KWOG2_OyDYbVC3phW-17" value="Security group" style="fillColor=none;strokeColor=#DD3522;verticalAlign=top;fontStyle=0;fontColor=#DD3522;fontSize=15;" vertex="1" parent="Ry7KWOG2_OyDYbVC3phW-4">
          <mxGeometry x="160" y="10" width="230" height="144" as="geometry" />
        </mxCell>
        <mxCell id="Ry7KWOG2_OyDYbVC3phW-3" value="Public subnet" style="points=[[0,0],[0.25,0],[0.5,0],[0.75,0],[1,0],[1,0.25],[1,0.5],[1,0.75],[1,1],[0.75,1],[0.5,1],[0.25,1],[0,1],[0,0.75],[0,0.5],[0,0.25]];outlineConnect=0;gradientColor=none;html=1;whiteSpace=wrap;fontSize=12;fontStyle=0;container=1;pointerEvents=0;collapsible=0;recursiveResize=0;shape=mxgraph.aws4.group;grIcon=mxgraph.aws4.group_security_group;grStroke=0;strokeColor=#248814;fillColor=#E9F3E6;verticalAlign=top;align=left;spacingLeft=30;fontColor=#248814;dashed=0;" vertex="1" parent="1">
          <mxGeometry x="170" y="400" width="480" height="210" as="geometry" />
        </mxCell>
        <mxCell id="Ry7KWOG2_OyDYbVC3phW-12" value="Security group" style="fillColor=none;strokeColor=#DD3522;verticalAlign=top;fontStyle=0;fontColor=#DD3522;fontSize=15;" vertex="1" parent="Ry7KWOG2_OyDYbVC3phW-3">
          <mxGeometry x="72.5" y="35" width="315" height="150" as="geometry" />
        </mxCell>
        <mxCell id="Ry7KWOG2_OyDYbVC3phW-8" value="" style="sketch=0;points=[[0,0,0],[0.25,0,0],[0.5,0,0],[0.75,0,0],[1,0,0],[0,1,0],[0.25,1,0],[0.5,1,0],[0.75,1,0],[1,1,0],[0,0.25,0],[0,0.5,0],[0,0.75,0],[1,0.25,0],[1,0.5,0],[1,0.75,0]];outlineConnect=0;fontColor=#232F3E;gradientColor=#F78E04;gradientDirection=north;fillColor=#D05C17;strokeColor=#ffffff;dashed=0;verticalLabelPosition=bottom;verticalAlign=top;align=center;html=1;fontSize=12;fontStyle=0;aspect=fixed;shape=mxgraph.aws4.resourceIcon;resIcon=mxgraph.aws4.ec2;" vertex="1" parent="Ry7KWOG2_OyDYbVC3phW-3">
          <mxGeometry x="100" y="90" width="70" height="70" as="geometry" />
        </mxCell>
        <mxCell id="Ry7KWOG2_OyDYbVC3phW-16" value="Java&amp;nbsp; App Server" style="text;html=1;resizable=0;autosize=1;align=center;verticalAlign=middle;points=[];fillColor=none;strokeColor=none;rounded=0;fontSize=15;" vertex="1" parent="Ry7KWOG2_OyDYbVC3phW-3">
          <mxGeometry x="165" y="130" width="130" height="20" as="geometry" />
        </mxCell>
        <mxCell id="Ry7KWOG2_OyDYbVC3phW-5" value="users" style="sketch=0;outlineConnect=0;gradientColor=none;fontColor=#545B64;strokeColor=none;fillColor=#879196;dashed=0;verticalLabelPosition=bottom;verticalAlign=top;align=center;html=1;fontSize=12;fontStyle=0;aspect=fixed;shape=mxgraph.aws4.illustration_users;pointerEvents=1" vertex="1" parent="1">
          <mxGeometry x="314" y="50" width="100" height="100" as="geometry" />
        </mxCell>
        <mxCell id="Ry7KWOG2_OyDYbVC3phW-9" value="" style="edgeStyle=orthogonalEdgeStyle;html=1;endArrow=none;elbow=vertical;startArrow=openThin;startFill=0;strokeColor=#545B64;rounded=0;" edge="1" parent="1" source="Ry7KWOG2_OyDYbVC3phW-7" target="Ry7KWOG2_OyDYbVC3phW-5">
          <mxGeometry width="100" relative="1" as="geometry">
            <mxPoint x="180" y="470" as="sourcePoint" />
            <mxPoint x="280" y="470" as="targetPoint" />
          </mxGeometry>
        </mxCell>
        <mxCell id="Ry7KWOG2_OyDYbVC3phW-14" value="" style="endArrow=classic;html=1;rounded=0;fontSize=15;entryX=0.5;entryY=0;entryDx=0;entryDy=0;entryPerimeter=0;" edge="1" parent="1" source="Ry7KWOG2_OyDYbVC3phW-7" target="Ry7KWOG2_OyDYbVC3phW-8">
          <mxGeometry width="50" height="50" relative="1" as="geometry">
            <mxPoint x="210" y="400" as="sourcePoint" />
            <mxPoint x="260" y="350" as="targetPoint" />
          </mxGeometry>
        </mxCell>
        <mxCell id="Ry7KWOG2_OyDYbVC3phW-15" value="" style="endArrow=classic;html=1;rounded=0;fontSize=15;exitX=0.5;exitY=1;exitDx=0;exitDy=0;exitPerimeter=0;" edge="1" parent="1" source="Ry7KWOG2_OyDYbVC3phW-8" target="Ry7KWOG2_OyDYbVC3phW-6">
          <mxGeometry width="50" height="50" relative="1" as="geometry">
            <mxPoint x="210" y="540" as="sourcePoint" />
            <mxPoint x="260" y="490" as="targetPoint" />
          </mxGeometry>
        </mxCell>
      </root>
    </mxGraphModel>
  </diagram>
</mxfile>
